<?xml version="1.0" encoding="UTF-8" standalone="no"?>
<svg
   xmlns:dc="http://purl.org/dc/elements/1.1/"
   xmlns:cc="http://creativecommons.org/ns#"
   xmlns:rdf="http://www.w3.org/1999/02/22-rdf-syntax-ns#"
   xmlns:svg="http://www.w3.org/2000/svg"
   xmlns="http://www.w3.org/2000/svg"
   xmlns:sodipodi="http://sodipodi.sourceforge.net/DTD/sodipodi-0.dtd"
   xmlns:inkscape="http://www.inkscape.org/namespaces/inkscape"
   width="210mm"
   height="92.301262mm"
   viewBox="0 0 210 92.301262"
   version="1.1"
   id="svg8"
   inkscape:version="1.0.1 (3bc2e813f5, 2020-09-07)"
   sodipodi:docname="drawing.svg">
  <defs
     id="defs2" />
  <sodipodi:namedview
     id="base"
     pagecolor="#ffffff"
     bordercolor="#666666"
     borderopacity="1.0"
     inkscape:pageopacity="0.0"
     inkscape:pageshadow="2"
     inkscape:zoom="0.93131796"
     inkscape:cx="334.48164"
     inkscape:cy="189.9998"
     inkscape:document-units="mm"
     inkscape:current-layer="layer1"
     inkscape:document-rotation="0"
     showgrid="false"
     inkscape:window-width="1920"
     inkscape:window-height="912"
     inkscape:window-x="-8"
     inkscape:window-y="-8"
     inkscape:window-maximized="1"
     fit-margin-top="0"
     fit-margin-left="0"
     fit-margin-right="0"
     fit-margin-bottom="0" />
  <metadata
     id="metadata5">
    <rdf:RDF>
      <cc:Work
         rdf:about="">
        <dc:format>image/svg+xml</dc:format>
        <dc:type
           rdf:resource="http://purl.org/dc/dcmitype/StillImage" />
        <dc:title></dc:title>
      </cc:Work>
    </rdf:RDF>
  </metadata>
  <g
     inkscape:label="Layer 1"
     inkscape:groupmode="layer"
     id="layer1"
     transform="translate(0,-102.34937)">
    <path
       d="m 78.784177,162.01709 c -5.026638,-5.02646 -11.009635,-8.74753 -17.537425,-11.00008 6.991457,-4.81535 11.584708,-12.87422 11.584708,-21.98681 0,-14.71177 -11.969056,-26.68083 -26.680833,-26.68083 -14.711774,0 -26.680829,11.96906 -26.680829,26.68083 0,9.11259 4.593247,17.17146 11.584889,21.98681 -6.52779,2.25255 -12.510786,5.97362 -17.537422,11.00008 C 4.800569,170.73397 0,182.32336 0,194.65063 h 7.211035 c 0,-21.4714 17.468193,-38.93959 38.939592,-38.93959 21.471403,0 38.939594,17.46819 38.939594,38.93959 h 7.211035 c 0,-12.32727 -4.800565,-23.91666 -13.517079,-32.63354 z M 46.150627,148.5 c -10.735607,0 -19.469794,-8.73401 -19.469794,-19.4698 0,-10.73578 8.734187,-19.46979 19.469794,-19.46979 10.735611,0 19.469797,8.73401 19.469797,19.46979 0,10.73579 -8.734186,19.4698 -19.469797,19.4698 z"
       id="path1998"
       style="display:inline;stroke-width:0.180276;fill:#fff" />
    <path
       id="path2004"
       style="stroke-width:0.599301;fill:#fff"
       d="m 269.18164,453.03125 c 1.68504,4.60957 3.04287,9.37566 4.04492,14.26953 h 22.39258 v 15.63867 h -20.45898 c 0.0694,1.53152 0.11132,3.0708 0.11132,4.61914 0,3.25431 -0.15598,6.47223 -0.45898,9.64844 h 111.42578 v 128.10352 h -76.63281 c 3.76439,4.59775 7.27099,9.3608 10.51953,14.26953 h 20.80273 v 15.63672 h -11.60156 c 2.42362,4.65875 4.63565,9.41793 6.6211,14.27148 h 121.80664 c 1.98553,-4.85355 4.19737,-9.61273 6.62109,-14.27148 h -10.17188 v -15.63672 h 19.375 c 3.24861,-4.90864 6.75316,-9.67185 10.51758,-14.26953 H 408.89258 V 497.20703 h 109.99804 c -0.30298,-3.17621 -0.45898,-6.39413 -0.45898,-9.64844 0,-1.54833 0.04,-3.08763 0.10938,-4.61914 h -19.0293 v -0.002 -15.63672 h 20.96484 c 1.00202,-4.89388 2.35995,-9.65995 4.04492,-14.26953 z m 49.08984,14.26953 h 22.65625 v 15.63867 h -22.65625 v -0.002 z m 45.31055,0 h 22.65625 v 15.63867 h -22.65625 v -0.002 z m 45.31055,0 h 22.65625 v 15.63867 h -22.65625 v -0.002 z m 45.31054,0 h 22.65626 v 15.63867 h -22.65626 v -0.002 z m -90.62109,172.2793 h 22.65625 v 15.63672 h -22.65625 z m 45.31055,0 h 22.65625 v 15.63672 h -22.65625 z"
       transform="scale(0.26458333)" />
    <path
       d="m 196.48292,162.01709 c -5.02664,-5.02646 -11.00963,-8.74753 -17.53742,-11.00008 6.99145,-4.81535 11.5847,-12.87422 11.5847,-21.98681 0,-14.71177 -11.96905,-26.68083 -26.68083,-26.68083 -14.71177,0 -26.68083,11.96906 -26.68083,26.68083 0,9.11259 4.59325,17.17146 11.58489,21.98681 -6.52779,2.25255 -12.51079,5.97362 -17.53742,11.00008 -8.7167,8.71688 -13.51727,20.30627 -13.51727,32.63354 h 7.21104 c 0,-21.4714 17.46819,-38.93959 38.93959,-38.93959 21.4714,0 38.93959,17.46819 38.93959,38.93959 H 210 c 0,-12.32727 -4.80057,-23.91666 -13.51708,-32.63354 z M 163.84937,148.5 c -10.73561,0 -19.46979,-8.73401 -19.46979,-19.4698 0,-10.73578 8.73418,-19.46979 19.46979,-19.46979 10.73561,0 19.4698,8.73401 19.4698,19.46979 0,10.73579 -8.73419,19.4698 -19.4698,19.4698 z"
       id="path2068"
       style="display:inline;stroke-width:0.180276;fill:#fff" />
    <path
       d="m 196.48292,162.01709 c -5.02664,-5.02646 -11.00964,-8.74753 -17.53743,-11.00008 6.99146,-4.81535 11.58471,-12.87422 11.58471,-21.98681 0,-14.71177 -11.96906,-26.68083 -26.68083,-26.68083 -14.71178,0 -26.68083,11.96906 -26.68083,26.68083 0,9.11259 4.59324,17.17146 11.58489,21.98681 -6.52779,2.25255 -12.51079,5.97362 -17.53743,11.00008 -8.71669,8.71688 -13.51726,20.30627 -13.51726,32.63354 h 7.21103 c 0,-21.4714 17.4682,-38.93959 38.9396,-38.93959 21.4714,0 38.93959,17.46819 38.93959,38.93959 H 210 c 0,-12.32727 -4.80057,-23.91666 -13.51708,-32.63354 z M 163.84937,148.5 c -10.73561,0 -19.4698,-8.73401 -19.4698,-19.4698 0,-10.73578 8.73419,-19.46979 19.4698,-19.46979 10.73561,0 19.46979,8.73401 19.46979,19.46979 0,10.73579 -8.73418,19.4698 -19.46979,19.4698 z"
       id="path2085"
       style="display:none;stroke-width:0.180276;fill:#fff" />
  </g>
</svg>
